<svg xmlns="http://www.w3.org/2000/svg" viewBox="0 0 41.85 21.53"><defs><style>.cls-1,.cls-2,.cls-3{fill:none;stroke:#231f20;stroke-miterlimit:10;stroke-width:0.75px;}.cls-2{stroke-dasharray:19.81 6.19;}.cls-3{stroke-dasharray:22.61 7.07;}</style></defs><g id="Layer_2" data-name="Layer 2"><g id="Layer_1-2" data-name="Layer 1"><path class="cls-1" d="M36.87,13.32A20.87,20.87,0,0,0,41.47.38H40a19.43,19.43,0,0,1-4.92,12.79"/><path class="cls-2" d="M30.35,17.09a18.62,18.62,0,0,1-10.16,2.59A18.76,18.76,0,0,1,8.93,15.33"/><path class="cls-1" d="M6.71,13.18A19.52,19.52,0,0,1,1.82.38H.38A21,21,0,0,0,5,13.33"/><path class="cls-3" d="M10.19,18a20.08,20.08,0,0,0,9.94,3.11,20.36,20.36,0,0,0,14.31-5.25"/></g></g></svg>