<svg xmlns="http://www.w3.org/2000/svg" viewBox="0 0 41.98 21.49"><defs><style>.cls-1{fill:#231f20;}</style></defs><g id="Layer_2" data-name="Layer 2"><g id="Layer_1-2" data-name="Layer 1"><path class="cls-1" d="M31.08,17.58l-.85-.84a18.6,18.6,0,0,1-10,2.54,16.89,16.89,0,0,1-8.54-2.52l-.84.83-.83.73s4.87,3.14,10.13,3.17a21.52,21.52,0,0,0,7.13-1,20.59,20.59,0,0,0,4.56-2.16"/><path class="cls-1" d="M2.19,0H0A20.68,20.68,0,0,0,.48,4.75a18.07,18.07,0,0,0,2,5.46,17.61,17.61,0,0,0,3.24,4.06L7.48,13A16.28,16.28,0,0,1,4.87,9.75,17.85,17.85,0,0,1,2.75,4.22,22,22,0,0,1,2.19,0Z"/><path class="cls-1" d="M39.78,0H42a20.68,20.68,0,0,1-.48,4.75,18.07,18.07,0,0,1-2,5.46,17.43,17.43,0,0,1-3.25,4.06L34.49,13a15.94,15.94,0,0,0,2.62-3.25,17.85,17.85,0,0,0,2.12-5.53A21.29,21.29,0,0,0,39.78,0Z"/></g></g></svg>