<svg xmlns="http://www.w3.org/2000/svg" width="106" height="70" viewBox="0 0 106 70">
    <defs>
        <style>.a{fill:#ffea46;}</style>
    </defs>
    <g transform="translate(-54 -34)">
        <path d="M93,0A231.2,231.2,0,0,0,56.8,2.75a152.7,152.7,0,0,0-29.561,7.5,84.958,84.958,0,0,0-11.356,5.18,48.236,48.236,0,0,0-8.574,5.945,24.916,24.916,0,0,0-5.419,6.57,14.111,14.111,0,0,0,0,14.107,24.913,24.913,0,0,0,5.419,6.57,48.237,48.237,0,0,0,8.574,5.945,84.966,84.966,0,0,0,11.356,5.18A152.708,152.708,0,0,0,56.8,67.25,231.2,231.2,0,0,0,93,70c4.349,0,8.723-.114,13-.339-22-1.158-42.228-5.276-56.953-11.6C41.767,54.94,36.08,51.4,32.142,47.536,28.067,43.538,26,39.321,26,35s2.067-8.538,6.142-12.536c3.937-3.862,9.625-7.4,16.9-10.529C63.77,5.616,84,1.5,106,.339,101.71.113,97.336,0,93,0Z" transform="translate(160 104) rotate(180)" />
        <ellipse class="a" cx="29" cy="28" rx="29" ry="28" transform="translate(63 41)" />
    </g>
</svg>