<?xml version="1.0" encoding="UTF-8"?>
<svg xmlns="http://www.w3.org/2000/svg" viewBox="0 0 28.94 28.98">
    <defs>
        <style>.d{fill:#231f20;}</style>
    </defs>
    <g id="a" />
    <g id="b">
        <g id="c">
            <g>
                <path class="d" d="M6.35,7.13h.29c.83,0,1.5,.67,1.5,1.5v7.57h-3.29v-7.57c0-.83,.67-1.5,1.5-1.5Z" transform="translate(-3 2.28) rotate(-16.22)" />
                <path class="d" d="M10.25,2.6h.35c.83,0,1.5,.67,1.5,1.5V15h-3.35V4.1c0-.83,.67-1.5,1.5-1.5Z" transform="translate(-2.04 3.26) rotate(-16.22)" />
                <path class="d" d="M14.41-.17h.37c.83,0,1.5,.67,1.5,1.5V13.77h-3.37V1.33c0-.83,.67-1.5,1.5-1.5Z" transform="translate(-1.32 4.35) rotate(-16.22)" />
                <path class="d" d="M19.04,.85h.35c.83,0,1.5,.67,1.5,1.5V12.52h-3.35V2.35c0-.83,.67-1.5,1.5-1.5Z" transform="translate(-1.1 5.63) rotate(-16.22)" />
                <rect class="d" x="7.05" y="13.95" width="16.92" height="8.63" transform="translate(-4.48 5.06) rotate(-16.22)" />
                <path class="d" d="M28.12,10.26l-.56-.18c-1.08-.34-2.23,.25-2.57,1.33l-1.54,4.82c-2.07-.99-4.88-1.2-7.74-.37-4.94,1.44-8.12,5.42-7.11,8.9s5.84,5.13,10.78,3.7c5.31-1.54,6.97-8.34,7.11-8.9,.02-.08,.03-.14,.04-.18l2.36-7.63c.2-.62-.14-1.29-.77-1.49Z" />
            </g>
            <path class="d" d="M4.31,18.94c-1.47-2.41-1.53-4.91-1.58-6.59-.02-.99,.04-1.81,.1-2.36-.95,1.3-1.36,3.62-.92,6.14,.63,3.62,2.75,6.28,4.75,5.94,.16-.03,.32-.08,.47-.15-1.52-1.07-2.37-2.23-2.82-2.97Z" />
            <path class="d" d="M3.67,22.07c-2.23-1.44-2.93-3.7-3.12-4.35-.22-.76-.29-1.42-.31-1.85-.48,1.26-.25,3.08,.72,4.77,1.4,2.44,3.8,3.68,5.37,2.78,.13-.07,.24-.16,.35-.26-1.47-.18-2.49-.74-3.02-1.08Z" />
            <path class="d" d="M19.58,.32c-.13,.04-.24,.1-.36,.16,.67,.16,1.83,.53,2.93,1.46,1.41,1.19,1.92,2.62,2.27,3.6,.66,1.85,.67,3.52,.56,4.65,.86-1.31,1.1-3.29,.46-5.33-.98-3.12-3.6-5.15-5.85-4.54Z" />
            <path class="d" d="M25.44,2.57c-.12-.01-.23,0-.34,0,.38,.17,1.24,.62,1.8,1.59,.59,1,.52,1.99,.48,2.7-.08,1.18-.48,2.11-.82,2.7,1.13-.54,1.98-1.62,2.13-2.95,.24-2.03-1.22-3.84-3.25-4.04Z" />
        </g>
    </g>
</svg>