<svg xmlns="http://www.w3.org/2000/svg" viewBox="0 0 15.45 27.93"><defs><style>.cls-1{fill:none;stroke:#221f20;stroke-linejoin:round;stroke-width:2px;}</style></defs><g id="Layer_2" data-name="Layer 2"><g id="Layer_1-2" data-name="Layer 1"><path class="cls-1" d="M14.45,6.86a6.73,6.73,0,0,1-3.84,6.08.67.67,0,0,0-.39.59V23.8c0,1.73-1.11,3.13-2.49,3.13s-2.49-1.4-2.49-3.13V13.53a.65.65,0,0,0-.39-.59A6.73,6.73,0,0,1,4.27,1.09a.66.66,0,0,1,1,.58V5.28a.65.65,0,0,0,.65.65H9.57a.65.65,0,0,0,.66-.66l0-3.6a.66.66,0,0,1,1-.58A6.72,6.72,0,0,1,14.45,6.86Z"/></g></g></svg>