<svg xmlns="http://www.w3.org/2000/svg" viewBox="0 0 23.19 23.53">
    <defs>
        <style>.ToolsIcon-1,.ToolsIcon-2{fill:#231f20;stroke:#231f20;}.ToolsIcon-1{stroke-linejoin:round;}.ToolsIcon-2,.ToolsIcon-3{stroke-miterlimit:10;}.ToolsIcon-3{fill:#fff;stroke:#fff;stroke-width:0.5px;}</style>
    </defs>
    <g id="Layer_2" data-name="Layer 2">
        <g id="Layer_1-2" data-name="Layer 1">
            <path class="ToolsIcon-1" d="M5.54,4.42,16.59,15.74c.39.4.59.84.45,1l-.61.6c-.14.14-.57-.08-1-.48L4.4,5.5,2.29,4.22.5,1.62,1.58.5,4.23,2.33Z" />
            <path class="ToolsIcon-2" d="M15.65,19.26l3.24,3.31a2.14,2.14,0,0,0,3-.33,2.14,2.14,0,0,0,.4-3L19,16a.94.94,0,0,1-1.22-1.25L17.08,14l-3.36,3.29.71.73a1,1,0,0,1,1,.21A1,1,0,0,1,15.65,19.26Z" />
            <line class="ToolsIcon-3" x1="15.94" y1="16.04" x2="21.33" y2="21.83" />
            <line class="ToolsIcon-3" x1="18.58" y1="16.52" x2="21.59" y2="19.72" />
            <line class="ToolsIcon-3" x1="16.22" y1="18.7" x2="19.27" y2="21.84" />
            <path class="ToolsIcon-1" d="M13.36,7.72l-.48.51,2.33,2.36.52-.55a.48.48,0,0,1,.49-.14,5,5,0,0,0,5-1.49,5.21,5.21,0,0,0,1.41-4.63.43.43,0,0,0-.76-.15L20,5.58a.45.45,0,0,1-.65,0l-1.74-1.7a.47.47,0,0,1,0-.66l1.87-1.92A.45.45,0,0,0,19.3.57a5.1,5.1,0,0,0-4.52,1.6,5.14,5.14,0,0,0-1.3,5.06A.5.5,0,0,1,13.36,7.72Z" />
            <path class="ToolsIcon-1" d="M10.48,15.38l-2.63-2.6L5.65,15h0L2.85,17.9C1,19.85,0,22,.75,22.69s2.87-.29,4.77-2.24l3-3-.09.08Zm-8.56,7.3a1.13,1.13,0,1,1,1.14-1.13A1.14,1.14,0,0,1,1.92,22.68Z" />
        </g>
    </g>
</svg>